<mxfile host="Electron" agent="Mozilla/5.0 (X11; Linux x86_64) AppleWebKit/537.36 (KHTML, like Gecko) draw.io/26.0.4 Chrome/128.0.6613.186 Electron/32.2.5 Safari/537.36" version="26.0.4">
  <diagram name="Page-1" id="mw7HBK64n5ze_IidIi3c">
    <mxGraphModel dx="1006" dy="998" grid="1" gridSize="10" guides="1" tooltips="1" connect="1" arrows="1" fold="1" page="1" pageScale="1" pageWidth="850" pageHeight="1100" math="0" shadow="0">
      <root>
        <mxCell id="0" />
        <mxCell id="1" parent="0" />
        <mxCell id="dVJyvJLcBfYeq8Ztni4K-2" value="Region" style="points=[[0,0],[0.25,0],[0.5,0],[0.75,0],[1,0],[1,0.25],[1,0.5],[1,0.75],[1,1],[0.75,1],[0.5,1],[0.25,1],[0,1],[0,0.75],[0,0.5],[0,0.25]];outlineConnect=0;gradientColor=none;html=1;whiteSpace=wrap;fontSize=12;fontStyle=0;container=1;pointerEvents=0;collapsible=0;recursiveResize=0;shape=mxgraph.aws4.group;grIcon=mxgraph.aws4.group_region;strokeColor=#00A4A6;fillColor=none;verticalAlign=top;align=left;spacingLeft=30;fontColor=#147EBA;dashed=1;" vertex="1" parent="1">
          <mxGeometry x="385" y="380" width="430" height="340" as="geometry" />
        </mxCell>
        <mxCell id="dVJyvJLcBfYeq8Ztni4K-10" value="VPC" style="sketch=0;outlineConnect=0;gradientColor=none;html=1;whiteSpace=wrap;fontSize=12;fontStyle=0;shape=mxgraph.aws4.group;grIcon=mxgraph.aws4.group_vpc;strokeColor=#879196;fillColor=none;verticalAlign=top;align=left;spacingLeft=30;fontColor=#879196;dashed=0;" vertex="1" parent="dVJyvJLcBfYeq8Ztni4K-2">
          <mxGeometry x="10" y="30" width="410" height="300" as="geometry" />
        </mxCell>
        <mxCell id="dVJyvJLcBfYeq8Ztni4K-3" value="Private subnet" style="points=[[0,0],[0.25,0],[0.5,0],[0.75,0],[1,0],[1,0.25],[1,0.5],[1,0.75],[1,1],[0.75,1],[0.5,1],[0.25,1],[0,1],[0,0.75],[0,0.5],[0,0.25]];outlineConnect=0;gradientColor=none;html=1;whiteSpace=wrap;fontSize=12;fontStyle=0;container=1;pointerEvents=0;collapsible=0;recursiveResize=0;shape=mxgraph.aws4.group;grIcon=mxgraph.aws4.group_security_group;grStroke=0;strokeColor=#00A4A6;fillColor=#E6F6F7;verticalAlign=top;align=left;spacingLeft=30;fontColor=#147EBA;dashed=0;" vertex="1" parent="dVJyvJLcBfYeq8Ztni4K-2">
          <mxGeometry x="240" y="110" width="170" height="160" as="geometry" />
        </mxCell>
        <mxCell id="dVJyvJLcBfYeq8Ztni4K-11" value="Amazon RDS for MySQL DB&lt;div&gt;(target)&lt;/div&gt;" style="sketch=0;outlineConnect=0;fontColor=#232F3E;gradientColor=none;fillColor=#C925D1;strokeColor=none;dashed=0;verticalLabelPosition=top;verticalAlign=bottom;align=center;html=1;fontSize=12;fontStyle=0;aspect=fixed;pointerEvents=1;shape=mxgraph.aws4.rds_mysql_instance;labelPosition=center;" vertex="1" parent="dVJyvJLcBfYeq8Ztni4K-3">
          <mxGeometry x="46" y="70" width="78" height="78" as="geometry" />
        </mxCell>
        <mxCell id="dVJyvJLcBfYeq8Ztni4K-4" value="Public subnet" style="points=[[0,0],[0.25,0],[0.5,0],[0.75,0],[1,0],[1,0.25],[1,0.5],[1,0.75],[1,1],[0.75,1],[0.5,1],[0.25,1],[0,1],[0,0.75],[0,0.5],[0,0.25]];outlineConnect=0;gradientColor=none;html=1;whiteSpace=wrap;fontSize=12;fontStyle=0;container=1;pointerEvents=0;collapsible=0;recursiveResize=0;shape=mxgraph.aws4.group;grIcon=mxgraph.aws4.group_security_group;grStroke=0;strokeColor=#7AA116;fillColor=#F2F6E8;verticalAlign=top;align=left;spacingLeft=30;fontColor=#248814;dashed=0;" vertex="1" parent="dVJyvJLcBfYeq8Ztni4K-2">
          <mxGeometry x="20" y="60" width="200" height="240" as="geometry" />
        </mxCell>
        <mxCell id="dVJyvJLcBfYeq8Ztni4K-12" value="Full load&lt;div&gt;+&lt;/div&gt;&lt;div&gt;Continuous Data&lt;/div&gt;&lt;div&gt;Replication (CDC)&lt;/div&gt;" style="sketch=0;points=[[0,0,0],[0.25,0,0],[0.5,0,0],[0.75,0,0],[1,0,0],[0,1,0],[0.25,1,0],[0.5,1,0],[0.75,1,0],[1,1,0],[0,0.25,0],[0,0.5,0],[0,0.75,0],[1,0.25,0],[1,0.5,0],[1,0.75,0]];outlineConnect=0;fontColor=#232F3E;fillColor=#C925D1;strokeColor=#ffffff;dashed=0;verticalLabelPosition=bottom;verticalAlign=top;align=center;html=1;fontSize=12;fontStyle=0;aspect=fixed;shape=mxgraph.aws4.resourceIcon;resIcon=mxgraph.aws4.database_migration_service;" vertex="1" parent="dVJyvJLcBfYeq8Ztni4K-2">
          <mxGeometry x="95" y="124" width="50" height="50" as="geometry" />
        </mxCell>
        <mxCell id="dVJyvJLcBfYeq8Ztni4K-13" value="AWS DMS Replication Instance" style="sketch=0;outlineConnect=0;fontColor=#232F3E;gradientColor=none;fillColor=#ED7100;strokeColor=none;dashed=0;verticalLabelPosition=bottom;verticalAlign=top;align=center;html=1;fontSize=12;fontStyle=0;aspect=fixed;pointerEvents=1;shape=mxgraph.aws4.instance2;" vertex="1" parent="dVJyvJLcBfYeq8Ztni4K-2">
          <mxGeometry x="30" y="90" width="180" height="180" as="geometry" />
        </mxCell>
        <mxCell id="dVJyvJLcBfYeq8Ztni4K-14" style="edgeStyle=orthogonalEdgeStyle;rounded=0;orthogonalLoop=1;jettySize=auto;html=1;strokeWidth=2;strokeColor=#00FFFF;" edge="1" parent="dVJyvJLcBfYeq8Ztni4K-2" source="dVJyvJLcBfYeq8Ztni4K-13" target="dVJyvJLcBfYeq8Ztni4K-11">
          <mxGeometry relative="1" as="geometry" />
        </mxCell>
        <mxCell id="dVJyvJLcBfYeq8Ztni4K-15" value="&amp;nbsp;Schema conversion&amp;nbsp;" style="edgeStyle=orthogonalEdgeStyle;rounded=0;orthogonalLoop=1;jettySize=auto;html=1;strokeColor=#FF8000;strokeWidth=2;" edge="1" parent="dVJyvJLcBfYeq8Ztni4K-2" source="dVJyvJLcBfYeq8Ztni4K-7">
          <mxGeometry x="-0.1897" y="2" relative="1" as="geometry">
            <mxPoint x="-297.5" y="271.9365230009022" as="sourcePoint" />
            <mxPoint x="328.00000000000045" y="260.0006459830771" as="targetPoint" />
            <Array as="points">
              <mxPoint x="-317" y="312" />
              <mxPoint x="328" y="312" />
            </Array>
            <mxPoint as="offset" />
          </mxGeometry>
        </mxCell>
        <mxCell id="dVJyvJLcBfYeq8Ztni4K-1" value="Corporate data center" style="points=[[0,0],[0.25,0],[0.5,0],[0.75,0],[1,0],[1,0.25],[1,0.5],[1,0.75],[1,1],[0.75,1],[0.5,1],[0.25,1],[0,1],[0,0.75],[0,0.5],[0,0.25]];outlineConnect=0;gradientColor=none;html=1;whiteSpace=wrap;fontSize=12;fontStyle=0;container=1;pointerEvents=0;collapsible=0;recursiveResize=0;shape=mxgraph.aws4.group;grIcon=mxgraph.aws4.group_corporate_data_center;strokeColor=#7D8998;fillColor=none;verticalAlign=top;align=left;spacingLeft=30;fontColor=#5A6C86;dashed=0;" vertex="1" parent="1">
          <mxGeometry x="35" y="380" width="230" height="340" as="geometry" />
        </mxCell>
        <mxCell id="dVJyvJLcBfYeq8Ztni4K-7" value="Server with&lt;div&gt;AWS SCT installed&lt;/div&gt;" style="sketch=0;outlineConnect=0;fontColor=#232F3E;gradientColor=none;fillColor=#232F3D;strokeColor=none;dashed=0;verticalLabelPosition=middle;verticalAlign=middle;align=left;html=1;fontSize=12;fontStyle=0;aspect=fixed;pointerEvents=1;shape=mxgraph.aws4.traditional_server;labelPosition=right;spacingRight=0;spacingLeft=5;" vertex="1" parent="dVJyvJLcBfYeq8Ztni4K-1">
          <mxGeometry x="10" y="192" width="45" height="78" as="geometry" />
        </mxCell>
        <mxCell id="dVJyvJLcBfYeq8Ztni4K-8" style="edgeStyle=orthogonalEdgeStyle;rounded=0;orthogonalLoop=1;jettySize=auto;html=1;strokeColor=#FF8000;strokeWidth=2;" edge="1" parent="dVJyvJLcBfYeq8Ztni4K-1" source="dVJyvJLcBfYeq8Ztni4K-6" target="dVJyvJLcBfYeq8Ztni4K-7">
          <mxGeometry relative="1" as="geometry" />
        </mxCell>
        <mxCell id="dVJyvJLcBfYeq8Ztni4K-6" value="Oracle DB&lt;div&gt;(source)&lt;/div&gt;" style="sketch=0;outlineConnect=0;fontColor=#232F3E;gradientColor=none;fillColor=#232F3D;strokeColor=none;dashed=0;verticalLabelPosition=bottom;verticalAlign=top;align=center;html=1;fontSize=12;fontStyle=0;aspect=fixed;pointerEvents=1;shape=mxgraph.aws4.generic_database;" vertex="1" parent="dVJyvJLcBfYeq8Ztni4K-1">
          <mxGeometry x="120" y="52" width="59" height="78" as="geometry" />
        </mxCell>
        <mxCell id="dVJyvJLcBfYeq8Ztni4K-18" value="&amp;nbsp;Data migration&amp;nbsp;" style="edgeStyle=orthogonalEdgeStyle;rounded=0;orthogonalLoop=1;jettySize=auto;html=1;strokeWidth=2;strokeColor=#00FFFF;" edge="1" parent="1" source="dVJyvJLcBfYeq8Ztni4K-6" target="dVJyvJLcBfYeq8Ztni4K-13">
          <mxGeometry x="0.4231" relative="1" as="geometry">
            <Array as="points">
              <mxPoint x="245" y="469" />
              <mxPoint x="245" y="560" />
            </Array>
            <mxPoint as="offset" />
          </mxGeometry>
        </mxCell>
      </root>
    </mxGraphModel>
  </diagram>
</mxfile>
